<svg width="256" height="256" viewBox="0 0 256 256" fill="none" xmlns="http://www.w3.org/2000/svg">
<rect width="256" height="256" fill="#1A4343"/>
<path fill-rule="evenodd" clip-rule="evenodd" d="M39.4662 119.981L43.7139 131.024H35.0804L39.2936 119.981H39.4662ZM38.6714 112.443L28.0695 139.567C27.8616 140.091 28.1385 140.615 28.6565 140.615H30.8315C31.2466 140.615 31.5229 140.293 31.6265 140.01C31.9718 139.084 32.3257 138.167 32.6797 137.25C33.0337 136.333 33.3877 135.416 33.733 134.489H45.0256L47.1668 140.01C47.305 140.373 47.5467 140.615 47.9611 140.615H50.1367C50.6547 140.615 50.931 140.091 50.7238 139.567L40.1909 112.443C40.0873 112.202 39.7765 112 39.6039 112H39.2584C39.0858 112 38.775 112.202 38.6714 112.443ZM73.0669 115.748C70.7186 113.37 68.1976 112 64.7097 112C57.8028 112 52.2429 118.489 52.2429 126.549C52.2429 134.61 57.8028 141.018 64.7097 141.018C67.7832 141.018 70.7531 139.769 73.1014 137.109C73.3431 136.827 73.4122 136.303 73.136 136.021L71.5474 134.207C71.3401 134.005 71.0293 133.965 70.7186 134.247C69.0609 135.739 67.2997 136.907 64.778 136.907C59.8403 136.907 56.0761 132.111 56.0761 126.469C56.0761 120.826 59.8058 115.99 64.7441 115.99C66.8853 115.99 69.0954 117.038 70.7186 118.69C71.0293 119.053 71.3401 119.053 71.5819 118.69L73.1014 116.877C73.3777 116.554 73.3777 116.071 73.0669 115.748ZM86.869 136.704C91.7124 136.704 95.6388 132.122 95.6388 126.469C95.6388 120.817 91.7124 116.234 86.869 116.234C82.0255 116.234 78.0992 120.817 78.0992 126.469C78.0992 132.122 82.0255 136.704 86.869 136.704ZM86.869 140.834C89.6296 140.834 92.178 139.773 94.2313 137.982L97.247 141.502C97.908 142.273 98.9795 142.273 99.6404 141.502C100.301 140.73 100.301 139.48 99.6404 138.708L96.6397 135.206C98.2314 132.786 99.1776 129.756 99.1776 126.469C99.1776 118.536 93.6668 112.105 86.869 112.105C80.0712 112.105 74.5604 118.536 74.5604 126.469C74.5604 134.403 80.0712 140.834 86.869 140.834ZM103.91 113.169C103.91 112.766 104.221 112.404 104.566 112.404H106.88C107.26 112.404 107.536 112.766 107.536 113.169V129.814C107.536 133.845 109.747 136.988 113.27 136.988C116.827 136.988 119.071 133.885 119.071 129.895V113.169C119.071 112.766 119.347 112.404 119.726 112.404H122.041C122.386 112.404 122.697 112.766 122.697 113.169V130.097C122.697 136.223 118.726 141.019 113.27 141.019C107.847 141.019 103.91 136.223 103.91 130.097V113.169ZM129.05 112.404C128.705 112.404 128.394 112.766 128.394 113.169V139.85C128.394 140.253 128.705 140.616 129.05 140.616H131.331C131.675 140.616 131.986 140.253 131.986 139.85V113.169C131.986 112.766 131.675 112.404 131.331 112.404H129.05ZM147.908 126.106C150.153 126.106 152.123 123.889 152.123 121.108C152.123 118.489 150.153 116.312 147.908 116.312H141.762V126.106H147.908ZM138.139 113.168C138.139 112.765 138.414 112.403 138.795 112.403H148.188C152.331 112.403 155.717 116.231 155.717 121.027C155.717 124.735 153.611 127.798 150.606 129.209L155.336 139.446C155.578 139.97 155.336 140.615 154.749 140.615H152.055C151.779 140.615 151.573 140.413 151.503 140.253L146.91 129.572H141.695V139.85C141.695 140.253 141.384 140.615 141.04 140.615H138.795C138.414 140.615 138.139 140.253 138.139 139.85V113.168ZM160.658 112.404C160.277 112.404 160.002 112.766 160.002 113.169V139.85C160.002 140.253 160.277 140.616 160.658 140.616H174.472C174.85 140.616 175.128 140.253 175.128 139.85V137.633C175.128 137.23 174.85 136.867 174.472 136.867H163.559V128.202H172.779C173.125 128.202 173.435 127.88 173.435 127.437V125.18C173.435 124.777 173.125 124.414 172.779 124.414H163.559V116.192H174.472C174.85 116.192 175.128 115.829 175.128 115.426V113.169C175.128 112.766 174.85 112.404 174.472 112.404H160.658ZM187.877 136.786C192.953 136.786 196.648 132.434 196.648 126.469C196.648 120.544 192.953 116.232 187.877 116.232H183.317V136.786H187.877ZM179.794 113.169C179.794 112.766 180.07 112.403 180.415 112.403H188.357C195.023 112.403 200.479 118.73 200.479 126.469C200.479 134.287 195.023 140.615 188.357 140.615H180.415C180.07 140.615 179.794 140.252 179.794 139.849V113.169ZM225.622 128.382H227.536L230.864 137.846H230.986L234.314 128.382H236.228V140.556H234.727V131.747H234.63L231.548 140.538H230.302L227.22 131.741H227.122V140.556H225.622V128.382ZM223.044 137.821C223.451 136.886 223.656 135.769 223.656 134.469C223.656 133.169 223.451 132.053 223.044 131.122C222.635 130.187 222.075 129.47 221.364 128.97C220.657 128.467 219.852 128.215 218.95 128.215C218.045 128.215 217.237 128.467 216.525 128.97C215.817 129.47 215.26 130.187 214.851 131.122C214.443 132.053 214.239 133.169 214.239 134.469C214.239 135.765 214.443 136.88 214.851 137.816C215.26 138.751 215.817 139.47 216.525 139.973C217.237 140.473 218.045 140.722 218.95 140.722C219.852 140.722 220.657 140.473 221.364 139.973C222.075 139.47 222.635 138.753 223.044 137.821ZM221.68 131.966C221.956 132.644 222.094 133.478 222.094 134.469C222.094 135.46 221.956 136.296 221.68 136.977C221.408 137.655 221.034 138.17 220.558 138.523C220.084 138.872 219.548 139.046 218.95 139.046C218.347 139.046 217.81 138.872 217.337 138.523C216.864 138.17 216.49 137.655 216.214 136.977C215.942 136.296 215.806 135.46 215.806 134.469C215.806 133.478 215.942 132.644 216.214 131.966C216.49 131.285 216.864 130.769 217.337 130.421C217.81 130.068 218.347 129.892 218.95 129.892C219.548 129.892 220.084 130.068 220.558 130.421C221.034 130.769 221.408 131.285 221.68 131.966ZM212.688 132.341H211.096C211.035 131.944 210.921 131.596 210.754 131.294C210.587 130.993 210.383 130.738 210.142 130.528C209.9 130.318 209.63 130.159 209.331 130.052C209.035 129.945 208.719 129.892 208.386 129.892C207.784 129.892 207.244 130.068 206.768 130.421C206.295 130.773 205.92 131.291 205.645 131.972C205.373 132.654 205.237 133.486 205.237 134.469C205.237 135.46 205.373 136.296 205.645 136.977C205.92 137.659 206.297 138.174 206.773 138.523C207.249 138.872 207.785 139.046 208.38 139.046C208.711 139.046 209.024 138.994 209.32 138.891C209.619 138.785 209.89 138.628 210.131 138.422C210.373 138.216 210.577 137.964 210.743 137.667C210.915 137.366 211.032 137.021 211.096 136.633L212.688 136.639C212.603 137.237 212.438 137.788 212.193 138.291C211.952 138.79 211.641 139.222 211.259 139.587C210.881 139.948 210.45 140.227 209.963 140.425C209.477 140.623 208.945 140.722 208.371 140.722C207.466 140.722 206.66 140.473 205.951 139.973C205.243 139.47 204.686 138.751 204.277 137.816C203.872 136.88 203.67 135.765 203.67 134.469C203.67 133.169 203.873 132.053 204.282 131.122C204.69 130.187 205.249 129.47 205.957 128.97C206.664 128.467 207.469 128.215 208.371 128.215C208.925 128.215 209.442 128.308 209.922 128.495C210.406 128.677 210.839 128.946 211.223 129.303C211.609 129.656 211.926 130.088 212.178 130.599C212.43 131.106 212.6 131.687 212.688 132.341ZM200.1 140.324C200.301 140.554 200.541 140.669 200.819 140.669C201.007 140.669 201.177 140.615 201.33 140.508C201.483 140.401 201.605 140.259 201.698 140.08C201.792 139.898 201.841 139.698 201.841 139.48C201.841 139.155 201.74 138.878 201.539 138.648C201.338 138.414 201.098 138.297 200.819 138.297C200.541 138.297 200.301 138.414 200.1 138.648C199.899 138.878 199.798 139.155 199.798 139.48C199.798 139.809 199.899 140.09 200.1 140.324Z" fill="white"/>
</svg>
